<svg xmlns="http://www.w3.org/2000/svg" viewBox="0 0 100 120">
  <g fill="none" stroke="#536270" stroke-linecap="round">
    <!-- Row 1 - top -->
    <line x1="32" y1="15" x2="58" y2="15" stroke-width="3"/>
    <circle cx="62" cy="15" r="4" fill="none" stroke-width="2.5"/>

    <!-- Row 2 -->
    <line x1="22" y1="28" x2="68" y2="28" stroke-width="3"/>
    <circle cx="72" cy="28" r="4" fill="none" stroke-width="2.5"/>

    <!-- Row 3 -->
    <line x1="18" y1="41" x2="55" y2="41" stroke-width="3"/>
    <circle cx="59" cy="41" r="4" fill="none" stroke-width="2.5"/>

    <!-- Row 4 -->
    <line x1="25" y1="54" x2="48" y2="54" stroke-width="3"/>
    <circle cx="52" cy="54" r="4" fill="none" stroke-width="2.5"/>

    <!-- Row 5 -->
    <line x1="30" y1="67" x2="72" y2="67" stroke-width="3"/>
    <circle cx="76" cy="67" r="4" fill="none" stroke-width="2.5"/>

    <!-- Row 6 - bottom -->
    <line x1="35" y1="80" x2="60" y2="80" stroke-width="3"/>
    <circle cx="64" cy="80" r="4" fill="none" stroke-width="2.5"/>

    <!-- Small accent dashes on left side -->
    <line x1="12" y1="21" x2="20" y2="21" stroke-width="2"/>
    <line x1="8" y1="34" x2="16" y2="34" stroke-width="2"/>
    <line x1="10" y1="47" x2="18" y2="47" stroke-width="2"/>
    <line x1="15" y1="60" x2="23" y2="60" stroke-width="2"/>
    <line x1="18" y1="73" x2="26" y2="73" stroke-width="2"/>
  </g>
</svg>
